<svg xmlns="http://www.w3.org/2000/svg" version="1.1" xmlns:xlink="http://www.w3.org/1999/xlink" xmlns:svgjs="http://svgjs.dev/svgjs" width="1500" height="1500" viewBox="0 0 1500 1500"><rect width="1500" height="1500" fill="#9bff01"></rect><g transform="matrix(0.6666666666666666,0,0,0.6666666666666666,249.36841158664555,669.3973382176821)"><svg viewBox="0 0 397 65" data-background-color="#9bff01" preserveAspectRatio="xMidYMid meet" height="245" width="1500" xmlns="http://www.w3.org/2000/svg" xmlns:xlink="http://www.w3.org/1999/xlink"><g id="tight-bounds" transform="matrix(1,0,0,1,0.2507406001017216,1.1848291304213774)"><svg viewBox="0 0 395.52 63.3656685607992" height="63.3656685607992" width="395.52"><g><svg viewBox="0 0 492.67018836857585 78.92995516269642" height="63.3656685607992" width="395.52"><g transform="matrix(1,0,0,1,0,0.8752157972630528)"><svg viewBox="0 0 395.52000000000004 77.17952356817031" height="77.17952356817031" width="395.52000000000004"><g id="textblocktransform"><svg viewBox="0 0 395.52000000000004 77.17952356817031" height="77.17952356817031" width="395.52000000000004" id="textblock"><g><svg viewBox="0 0 395.52000000000004 77.17952356817031" height="77.17952356817031" width="395.52000000000004"><g transform="matrix(1,0,0,1,0,0)"><svg width="395.52000000000004" viewBox="2.35 -38.05 197.28 38.5" height="77.17952356817031" data-palette-color="#002400"><path d="M13.55 0.45Q10.4 0.45 7.9-0.63 5.4-1.7 3.95-3.63 2.5-5.55 2.35-8.05L2.35-8.05 7.05-8.05Q7.25-6 8.97-4.7 10.7-3.4 13.5-3.4L13.5-3.4Q16.1-3.4 17.6-4.55 19.1-5.7 19.1-7.45L19.1-7.45Q19.1-9.25 17.5-10.13 15.9-11 12.55-11.85L12.55-11.85Q9.5-12.65 7.58-13.48 5.65-14.3 4.28-15.93 2.9-17.55 2.9-20.2L2.9-20.2Q2.9-22.3 4.15-24.05 5.4-25.8 7.7-26.83 10-27.85 12.95-27.85L12.95-27.85Q17.5-27.85 20.3-25.55 23.1-23.25 23.3-19.25L23.3-19.25 18.75-19.25Q18.6-21.4 17.03-22.7 15.45-24 12.8-24L12.8-24Q10.35-24 8.9-22.95 7.45-21.9 7.45-20.2L7.45-20.2Q7.45-18.85 8.33-17.98 9.2-17.1 10.53-16.57 11.85-16.05 14.2-15.4L14.2-15.4Q17.15-14.6 19-13.83 20.85-13.05 22.18-11.5 23.5-9.95 23.55-7.45L23.55-7.45Q23.55-5.2 22.3-3.4 21.05-1.6 18.78-0.58 16.5 0.45 13.55 0.45L13.55 0.45ZM42.65-23.65L35.5-23.65 35.5-7.5Q35.5-5.5 36.35-4.67 37.2-3.85 39.3-3.85L39.3-3.85 42.65-3.85 42.65 0 38.55 0Q34.75 0 32.85-1.75 30.95-3.5 30.95-7.5L30.95-7.5 30.95-23.65 27.4-23.65 27.4-27.4 30.95-27.4 30.95-34.3 35.5-34.3 35.5-27.4 42.65-27.4 42.65-23.65ZM60.09 0.45Q56.25 0.45 53.12-1.3 50-3.05 48.22-6.28 46.45-9.5 46.45-13.75L46.45-13.75Q46.45-17.95 48.27-21.18 50.09-24.4 53.25-26.13 56.4-27.85 60.3-27.85L60.3-27.85Q64.2-27.85 67.34-26.13 70.5-24.4 72.32-21.2 74.15-18 74.15-13.75L74.15-13.75Q74.15-9.5 72.27-6.28 70.4-3.05 67.2-1.3 64 0.45 60.09 0.45L60.09 0.45ZM60.09-3.55Q62.55-3.55 64.7-4.7 66.84-5.85 68.17-8.15 69.5-10.45 69.5-13.75L69.5-13.75Q69.5-17.05 68.2-19.35 66.9-21.65 64.8-22.78 62.7-23.9 60.25-23.9L60.25-23.9Q57.75-23.9 55.67-22.78 53.59-21.65 52.34-19.35 51.09-17.05 51.09-13.75L51.09-13.75Q51.09-10.4 52.32-8.1 53.55-5.8 55.59-4.67 57.65-3.55 60.09-3.55L60.09-3.55ZM78.44-13.75Q78.44-18 80.14-21.18 81.84-24.35 84.87-26.1 87.89-27.85 91.79-27.85L91.79-27.85Q96.84-27.85 100.12-25.4 103.39-22.95 104.44-18.6L104.44-18.6 99.54-18.6Q98.84-21.1 96.82-22.55 94.79-24 91.79-24L91.79-24Q87.89-24 85.49-21.33 83.09-18.65 83.09-13.75L83.09-13.75Q83.09-8.8 85.49-6.1 87.89-3.4 91.79-3.4L91.79-3.4Q94.79-3.4 96.79-4.8 98.79-6.2 99.54-8.8L99.54-8.8 104.44-8.8Q103.34-4.6 100.04-2.08 96.74 0.45 91.79 0.45L91.79 0.45Q87.89 0.45 84.87-1.3 81.84-3.05 80.14-6.25 78.44-9.45 78.44-13.75L78.44-13.75ZM131.99 0L125.79 0 115.04-12.1 115.04 0 110.49 0 110.49-37 115.04-37 115.04-15.25 125.59-27.4 131.94-27.4 119.04-13.75 131.99 0ZM136.24-37L140.79-37 140.79 0 136.24 0 136.24-37ZM150.89-31.85Q149.59-31.85 148.69-32.75 147.79-33.65 147.79-34.95L147.79-34.95Q147.79-36.25 148.69-37.15 149.59-38.05 150.89-38.05L150.89-38.05Q152.14-38.05 153.01-37.15 153.89-36.25 153.89-34.95L153.89-34.95Q153.89-33.65 153.01-32.75 152.14-31.85 150.89-31.85L150.89-31.85ZM148.54-27.4L153.09-27.4 153.09 0 148.54 0 148.54-27.4ZM170.53 0.45Q167.38 0.45 164.88-0.63 162.38-1.7 160.93-3.63 159.48-5.55 159.33-8.05L159.33-8.05 164.03-8.05Q164.23-6 165.96-4.7 167.68-3.4 170.48-3.4L170.48-3.4Q173.08-3.4 174.58-4.55 176.08-5.7 176.08-7.45L176.08-7.45Q176.08-9.25 174.48-10.13 172.88-11 169.53-11.85L169.53-11.85Q166.48-12.65 164.56-13.48 162.63-14.3 161.26-15.93 159.88-17.55 159.88-20.2L159.88-20.2Q159.88-22.3 161.13-24.05 162.38-25.8 164.68-26.83 166.98-27.85 169.93-27.85L169.93-27.85Q174.48-27.85 177.28-25.55 180.08-23.25 180.28-19.25L180.28-19.25 175.73-19.25Q175.58-21.4 174.01-22.7 172.43-24 169.78-24L169.78-24Q167.33-24 165.88-22.95 164.43-21.9 164.43-20.2L164.43-20.2Q164.43-18.85 165.31-17.98 166.18-17.1 167.51-16.57 168.83-16.05 171.18-15.4L171.18-15.4Q174.13-14.6 175.98-13.83 177.83-13.05 179.16-11.5 180.48-9.95 180.53-7.45L180.53-7.45Q180.53-5.2 179.28-3.4 178.03-1.6 175.76-0.58 173.48 0.45 170.53 0.45L170.53 0.45ZM199.63-23.65L192.48-23.65 192.48-7.5Q192.48-5.5 193.33-4.67 194.18-3.85 196.28-3.85L196.28-3.85 199.63-3.85 199.63 0 195.53 0Q191.73 0 189.83-1.75 187.93-3.5 187.93-7.5L187.93-7.5 187.93-23.65 184.38-23.65 184.38-27.4 187.93-27.4 187.93-34.3 192.48-34.3 192.48-27.4 199.63-27.4 199.63-23.65Z" opacity="1" transform="matrix(1,0,0,1,0,0)" fill="#002400" class="wordmark-text-0" data-fill-palette-color="primary" id="text-0"></path></svg></g></svg></g></svg></g></svg></g><g transform="matrix(1,0,0,1,413.7402332058794,0)"><svg viewBox="0 0 78.92995516269642 78.92995516269642" height="78.92995516269642" width="78.92995516269642"><g><svg xmlns="http://www.w3.org/2000/svg" xmlns:xlink="http://www.w3.org/1999/xlink" version="1.1" x="0" y="0" viewBox="0 0 64 64" enable-background="new 0 0 64 64" xml:space="preserve" height="78.92995516269642" width="78.92995516269642" class="icon-icon-0" data-fill-palette-color="accent" id="icon-0"><g fill="#0d0707" data-fill-palette-color="accent"><g fill="#0d0707" data-fill-palette-color="accent"><g fill="#0d0707" data-fill-palette-color="accent"><path d="M1 64A1 1 0 0 1 0 63V1A1 1 0 1 1 2 1V63A1 1 0 0 1 1 64" fill="#0d0707" data-fill-palette-color="accent"></path></g><g fill="#0d0707" data-fill-palette-color="accent"><path d="M63 64H1A1 1 0 1 1 1 62H63A1 1 0 1 1 63 64" fill="#0d0707" data-fill-palette-color="accent"></path></g><g fill="#0d0707" data-fill-palette-color="accent"><g fill="#0d0707" data-fill-palette-color="accent"><path d="M26 42H14A1 1 0 1 1 14 40H26A1 1 0 1 1 26 42" fill="#0d0707" data-fill-palette-color="accent"></path></g><g fill="#0d0707" data-fill-palette-color="accent"><path d="M31.001 52A1 1 0 0 1 30.105 51.447L25.105 41.447A1 1 0 0 1 26.894 40.552L31.894 50.552A1 1 0 0 1 31.001 52" fill="#0d0707" data-fill-palette-color="accent"></path></g><g fill="#0d0707" data-fill-palette-color="accent"><path d="M23 59A1 1 0 0 1 22.342 57.247L30.342 50.247A1 1 0 0 1 31.658 51.753L23.658 58.753A1 1 0 0 1 23 59" fill="#0d0707" data-fill-palette-color="accent"></path></g><g fill="#0d0707" data-fill-palette-color="accent"><path d="M8.999 52A1 1 0 0 1 8.106 50.553L13.106 40.553A1 1 0 0 1 14.895 41.448L9.895 51.448C9.719 51.798 9.366 52 8.999 52" fill="#0d0707" data-fill-palette-color="accent"></path></g><g fill="#0d0707" data-fill-palette-color="accent"><path d="M17 59A1 1 0 0 1 16.342 58.753L8.342 51.753A1 1 0 0 1 9.658 50.247L17.658 57.247A1 1 0 0 1 17 59" fill="#0d0707" data-fill-palette-color="accent"></path></g><g fill="#0d0707" data-fill-palette-color="accent"><path d="M23 59H17A1 1 0 1 1 17 57H23A1 1 0 1 1 23 59" fill="#0d0707" data-fill-palette-color="accent"></path></g><g fill="#0d0707" data-fill-palette-color="accent"><path d="M11.499 47A1 1 0 0 1 10.875 46.781L8.375 44.781A1 1 0 0 1 9.625 43.219L12.125 45.219A1 1 0 0 1 11.499 47" fill="#0d0707" data-fill-palette-color="accent"></path></g><g fill="#0d0707" data-fill-palette-color="accent"><path d="M8.999 45A1 1 0 0 1 8.168 43.445L10.168 40.445A1 1 0 1 1 11.832 41.555L9.832 44.555A1 1 0 0 1 8.999 45" fill="#0d0707" data-fill-palette-color="accent"></path></g><g fill="#0d0707" data-fill-palette-color="accent"><path d="M13.5 43A1 1 0 0 1 13.129 42.929L10.629 41.929A1 1 0 0 1 11.371 40.071L13.871 41.071A1 1 0 0 1 13.5 43" fill="#0d0707" data-fill-palette-color="accent"></path></g><g fill="#0d0707" data-fill-palette-color="accent"><path d="M28.501 47A1.002 1.002 0 0 1 27.875 45.219L30.375 43.219A1 1 0 0 1 31.625 44.781L29.125 46.781A1 1 0 0 1 28.501 47" fill="#0d0707" data-fill-palette-color="accent"></path></g><g fill="#0d0707" data-fill-palette-color="accent"><path d="M31.001 45A1 1 0 0 1 30.168 44.555L28.168 41.555A1 1 0 1 1 29.832 40.445L31.832 43.445A1 1 0 0 1 31.001 45" fill="#0d0707" data-fill-palette-color="accent"></path></g><g fill="#0d0707" data-fill-palette-color="accent"><path d="M26.556 43A1 1 0 0 1 26.177 41.074L28.621 40.074A1 1 0 1 1 29.379 41.926L26.935 42.926A1 1 0 0 1 26.556 43" fill="#0d0707" data-fill-palette-color="accent"></path></g><g fill="#0d0707" data-fill-palette-color="accent"><path d="M20.03 52C19.477 52 19.025 51.553 19.025 51S19.467 50 20.019 50H20.03A1 1 0 1 1 20.03 52" fill="#0d0707" data-fill-palette-color="accent"></path></g><g fill="#0d0707" data-fill-palette-color="accent"><path d="M23 54H17A1 1 0 1 1 17 52H23A1 1 0 1 1 23 54" fill="#0d0707" data-fill-palette-color="accent"></path></g><g fill="#0d0707" data-fill-palette-color="accent"><path d="M22.999 54A1 1 0 0 1 22.03 53.242L21.03 49.242A1 1 0 0 1 21.758 48.03 1 1 0 0 1 22.97 48.758L23.97 52.758A0.998 0.998 0 0 1 22.999 54" fill="#0d0707" data-fill-palette-color="accent"></path></g><g fill="#0d0707" data-fill-palette-color="accent"><path d="M17.001 54A1 1 0 0 1 16.03 52.758L17.03 48.758A1 1 0 0 1 18.97 49.242L17.97 53.242A1 1 0 0 1 17.001 54" fill="#0d0707" data-fill-palette-color="accent"></path></g><g fill="#0d0707" data-fill-palette-color="accent"><path d="M18 47H17A1 1 0 1 1 17 45H18A1 1 0 1 1 18 47" fill="#0d0707" data-fill-palette-color="accent"></path></g><g fill="#0d0707" data-fill-palette-color="accent"><path d="M23 47H22A1 1 0 1 1 22 45H23A1 1 0 1 1 23 47" fill="#0d0707" data-fill-palette-color="accent"></path></g></g><g fill="#0d0707" data-fill-palette-color="accent"><g fill="#0d0707" data-fill-palette-color="accent"><path d="M47 24H40A1 1 0 1 1 40 22H47A1 1 0 1 1 47 24" fill="#0d0707" data-fill-palette-color="accent"></path></g><g fill="#0d0707" data-fill-palette-color="accent"><path d="M42.03 21C41.477 21 41.025 20.552 41.025 20S41.467 19 42.019 19H42.03A1 1 0 0 1 42.03 21" fill="#0d0707" data-fill-palette-color="accent"></path></g><g fill="#0d0707" data-fill-palette-color="accent"><path d="M45.03 21C44.477 21 44.025 20.552 44.025 20S44.467 19 45.019 19H45.03A1 1 0 0 1 45.03 21" fill="#0d0707" data-fill-palette-color="accent"></path></g><g fill="#0d0707" data-fill-palette-color="accent"><path d="M36 9A1 1 0 0 1 35.629 7.071L43.129 4.071A1 1 0 1 1 43.871 5.928L36.371 8.928A1 1 0 0 1 36 9" fill="#0d0707" data-fill-palette-color="accent"></path></g><g fill="#0d0707" data-fill-palette-color="accent"><path d="M51 9A1 1 0 0 1 50.629 8.928L43.129 5.928A1 1 0 0 1 43.871 4.071L51.371 7.071A1 1 0 0 1 51 9" fill="#0d0707" data-fill-palette-color="accent"></path></g><g fill="#0d0707" data-fill-palette-color="accent"><path d="M51 12A1 1 0 0 1 50 11V8A1 1 0 1 1 52 8V11A1 1 0 0 1 51 12" fill="#0d0707" data-fill-palette-color="accent"></path></g><g fill="#0d0707" data-fill-palette-color="accent"><path d="M36 12A1 1 0 0 1 35 11V8A1 1 0 1 1 37 8V11A1 1 0 0 1 36 12" fill="#0d0707" data-fill-palette-color="accent"></path></g><g fill="#0d0707" data-fill-palette-color="accent"><g fill="#0d0707" data-fill-palette-color="accent"><path d="M54 9H51A1 1 0 1 1 51 7H54A1 1 0 1 1 54 9" fill="#0d0707" data-fill-palette-color="accent"></path></g><g fill="#0d0707" data-fill-palette-color="accent"><path d="M56 13H51A1 1 0 1 1 51 11H56A1 1 0 1 1 56 13" fill="#0d0707" data-fill-palette-color="accent"></path></g><g fill="#0d0707" data-fill-palette-color="accent"><path d="M55.999 13A1 1 0 0 1 55.168 11.445L57.168 8.445A1 1 0 0 1 58.555 8.168 1 1 0 0 1 58.832 9.555L56.832 12.555A1 1 0 0 1 55.999 13" fill="#0d0707" data-fill-palette-color="accent"></path></g><g fill="#0d0707" data-fill-palette-color="accent"><path d="M58.001 10A1 1 0 0 1 57.143 9.515L54.143 4.515A1 1 0 1 1 55.858 3.486L58.858 8.486A1 1 0 0 1 58.001 10" fill="#0d0707" data-fill-palette-color="accent"></path></g><g fill="#0d0707" data-fill-palette-color="accent"><path d="M54.001 9A1 1 0 0 1 53.03 7.757L54.03 3.757A1 1 0 0 1 55.97 4.242L54.97 8.242A1 1 0 0 1 54.001 9" fill="#0d0707" data-fill-palette-color="accent"></path></g></g><g fill="#0d0707" data-fill-palette-color="accent"><g fill="#0d0707" data-fill-palette-color="accent"><path d="M36 9H33A1 1 0 1 1 33 7H36A1 1 0 1 1 36 9" fill="#0d0707" data-fill-palette-color="accent"></path></g><g fill="#0d0707" data-fill-palette-color="accent"><path d="M36 13H31A1 1 0 1 1 31 11H36A1 1 0 1 1 36 13" fill="#0d0707" data-fill-palette-color="accent"></path></g><g fill="#0d0707" data-fill-palette-color="accent"><path d="M31.001 13A1 1 0 0 1 30.168 12.555L28.168 9.555A1 1 0 1 1 29.832 8.445L31.832 11.445A1 1 0 0 1 31.001 13" fill="#0d0707" data-fill-palette-color="accent"></path></g><g fill="#0d0707" data-fill-palette-color="accent"><path d="M28.999 10A1 1 0 0 1 28.142 8.485L31.142 3.485A1 1 0 0 1 32.857 4.514L29.857 9.514A1 1 0 0 1 28.999 10" fill="#0d0707" data-fill-palette-color="accent"></path></g><g fill="#0d0707" data-fill-palette-color="accent"><path d="M32.999 9A1 1 0 0 1 32.03 8.243L31.03 4.243A0.999 0.999 0 1 1 32.97 3.758L33.97 7.758A1 1 0 0 1 32.999 9" fill="#0d0707" data-fill-palette-color="accent"></path></g></g><g fill="#0d0707" data-fill-palette-color="accent"><path d="M36 19A1 1 0 0 1 35 18V11A1 1 0 1 1 37 11V18A1 1 0 0 1 36 19" fill="#0d0707" data-fill-palette-color="accent"></path></g><g fill="#0d0707" data-fill-palette-color="accent"><path d="M40.001 24A1 1 0 0 1 39.219 23.625L35.219 18.625A1 1 0 0 1 36.781 17.376L40.781 22.376A1 1 0 0 1 40.001 24" fill="#0d0707" data-fill-palette-color="accent"></path></g><g fill="#0d0707" data-fill-palette-color="accent"><path d="M46.999 24A1 1 0 0 1 46.219 22.375L50.22 17.375A1 1 0 0 1 51.782 18.625L47.781 23.625A1 1 0 0 1 46.999 24" fill="#0d0707" data-fill-palette-color="accent"></path></g><g fill="#0d0707" data-fill-palette-color="accent"><path d="M51.001 19A1 1 0 0 1 50.001 18L50 11A1 1 0 1 1 52 11L52.001 18A1 1 0 0 1 51.001 19" fill="#0d0707" data-fill-palette-color="accent"></path></g><g fill="#0d0707" data-fill-palette-color="accent"><path d="M37.001 20A1 1 0 0 1 36.552 18.105L40.552 16.105A1 1 0 1 1 41.447 17.894L37.447 19.894A1 1 0 0 1 37.001 20" fill="#0d0707" data-fill-palette-color="accent"></path></g><g fill="#0d0707" data-fill-palette-color="accent"><path d="M46 18H41A1 1 0 1 1 41 16H46A1 1 0 1 1 46 18" fill="#0d0707" data-fill-palette-color="accent"></path></g><g fill="#0d0707" data-fill-palette-color="accent"><path d="M49.999 20C49.849 20 49.696 19.966 49.553 19.895L45.553 17.895A1 1 0 0 1 46.448 16.106L50.448 18.106A1 1 0 0 1 49.999 20" fill="#0d0707" data-fill-palette-color="accent"></path></g><g fill="#0d0707" data-fill-palette-color="accent"><path d="M41 13H40A1 1 0 1 1 40 11H41A1 1 0 1 1 41 13" fill="#0d0707" data-fill-palette-color="accent"></path></g><g fill="#0d0707" data-fill-palette-color="accent"><path d="M47 13H46A1 1 0 1 1 46 11H47A1 1 0 1 1 47 13" fill="#0d0707" data-fill-palette-color="accent"></path></g></g><g fill="#0d0707" data-fill-palette-color="accent"><g fill="#0d0707" data-fill-palette-color="accent"><path d="M18 32.001A1 1 0 0 1 17.392 31.793L4.391 21.792A1 1 0 1 1 5.609 20.207L18.61 30.208A1 1 0 0 1 18 32.001" fill="#0d0707" data-fill-palette-color="accent"></path></g><g fill="#0d0707" data-fill-palette-color="accent"><path d="M18.001 32.001A0.999 0.999 0 0 1 17.294 30.294L24.294 23.294A0.999 0.999 0 1 1 25.708 24.708L18.708 31.708A1 1 0 0 1 18.001 32.001" fill="#0d0707" data-fill-palette-color="accent"></path></g><g fill="#0d0707" data-fill-palette-color="accent"><path d="M44.001 44.001A1 1 0 0 1 43.294 43.708L24.294 24.708A0.999 0.999 0 1 1 25.708 23.294L44.708 42.294A0.999 0.999 0 0 1 44.001 44.001" fill="#0d0707" data-fill-palette-color="accent"></path></g><g fill="#0d0707" data-fill-palette-color="accent"><path d="M44.001 44.001A0.999 0.999 0 0 1 43.294 42.294L62.293 23.293A0.999 0.999 0 1 1 63.707 24.707L44.708 43.708A1 1 0 0 1 44.001 44.001" fill="#0d0707" data-fill-palette-color="accent"></path></g><g fill="#0d0707" data-fill-palette-color="accent"><path d="M63 29A1 1 0 0 1 62 28V24A1 1 0 1 1 64 24V28A1 1 0 0 1 63 29" fill="#0d0707" data-fill-palette-color="accent"></path></g><g fill="#0d0707" data-fill-palette-color="accent"><path d="M63 25H59A1 1 0 1 1 59 23H63A1 1 0 1 1 63 25" fill="#0d0707" data-fill-palette-color="accent"></path></g></g></g></g></svg></g></svg></g></svg></g><defs></defs></svg><rect width="395.52" height="63.3656685607992" fill="none" stroke="none" visibility="hidden"></rect></g></svg></g></svg>